<?xml version="1.0" standalone="no"?>
<!DOCTYPE svg PUBLIC "-//W3C//DTD SVG 20010904//EN"
 "http://www.w3.org/TR/2001/REC-SVG-20010904/DTD/svg10.dtd">
<svg version="1.0" xmlns="http://www.w3.org/2000/svg"
 width="200.000000pt" height="200.000000pt" viewBox="0 0 200.000000 200.000000"
 preserveAspectRatio="xMidYMid meet">
<metadata>
Created by potrace 1.16, written by Peter Selinger 2001-2019
</metadata>
<g transform="translate(0.000000,200.000000) scale(0.100000,-0.100000)"
fill="#000000" stroke="none">
<path d="M0 1000 l0 -1000 1000 0 1000 0 0 1000 0 1000 -1000 0 -1000 0 0
-1000z m1180 423 c0 -5 -4 -15 -10 -23 -12 -20 6 -30 58 -30 29 0 48 6 62 20
26 26 33 25 24 -2 -10 -34 -33 -56 -65 -63 -16 -4 -29 -9 -29 -11 0 -15 33
-64 47 -73 16 -8 13 -12 -20 -26 -21 -8 -42 -13 -48 -9 -6 4 -9 -15 -7 -52 3
-56 4 -59 33 -65 17 -4 59 -19 94 -34 43 -18 76 -26 102 -23 46 4 50 -6 9 -27
-37 -19 -88 -19 -157 1 -68 20 -90 14 -148 -36 -74 -64 -120 -69 -212 -21 -23
11 -51 21 -63 21 -23 0 -24 4 -10 30 8 15 6 21 -9 30 -30 15 -51 12 -111 -16
-68 -32 -140 -36 -169 -10 -11 10 -18 23 -15 27 8 14 48 10 70 -6 29 -22 44
-19 108 25 61 41 107 51 147 30 27 -15 25 11 -3 38 -38 35 -77 45 -105 27 -13
-9 -30 -14 -36 -12 -7 2 -19 -2 -28 -10 -9 -8 -29 -15 -45 -16 -41 -3 -37 22
6 47 48 29 131 28 188 -2 l42 -22 0 30 c0 21 -5 30 -17 30 -18 0 -53 28 -53
42 0 4 8 8 18 8 9 1 28 7 41 14 l24 13 -36 12 c-42 14 -71 46 -87 97 -12 35
-6 60 9 36 11 -19 162 -91 177 -85 8 3 14 13 14 22 0 23 28 61 54 71 26 11
156 13 156 3z"/>
</g>
</svg>
