<?xml version="1.0" standalone="no"?>
<!DOCTYPE svg PUBLIC "-//W3C//DTD SVG 20010904//EN"
 "http://www.w3.org/TR/2001/REC-SVG-20010904/DTD/svg10.dtd">
<svg version="1.0" xmlns="http://www.w3.org/2000/svg"
 width="800.000000pt" height="800.000000pt" viewBox="0 0 800.000000 800.000000"
 preserveAspectRatio="xMidYMid meet">

<g transform="translate(0.000000,800.000000) scale(0.100000,-0.100000)"
fill="#000000" stroke="none">
<path d="M0 4000 l0 -4000 4000 0 4000 0 0 4000 0 4000 -4000 0 -4000 0 0
-4000z m815 1015 c48 -47 17 -125 -51 -125 -38 0 -74 38 -74 77 0 32 42 73 75
73 14 0 37 -11 50 -25z m182 3 c28 -26 31 -82 6 -110 -23 -26 -87 -24 -113 4
-65 70 37 172 107 106z m180 0 c27 -25 30 -73 7 -106 -23 -34 -95 -31 -123 4
-12 15 -21 37 -21 49 0 12 9 34 21 49 27 34 82 36 116 4z m182 -4 c24 -30 26
-55 10 -87 -16 -30 -28 -37 -71 -37 -69 0 -101 68 -57 124 16 20 29 26 59 26
30 0 43 -6 59 -26z m180 0 c24 -30 26 -55 10 -87 -16 -30 -28 -37 -69 -37 -41
0 -53 7 -69 37 -16 32 -14 57 10 87 16 20 29 26 59 26 30 0 43 -6 59 -26z
m180 0 c44 -56 10 -124 -61 -124 -48 0 -78 28 -78 72 0 73 95 108 139 52z
m165 10 c40 -39 42 -78 8 -116 -20 -23 -89 -24 -114 -1 -25 22 -24 83 2 111
25 26 81 30 104 6z m183 -6 c51 -48 16 -128 -56 -128 -48 0 -75 28 -75 77 0
66 81 98 131 51z m158 16 c23 -9 46 -60 39 -88 -21 -87 -154 -73 -154 16 0 58
58 94 115 72z m533 -166 c17 -17 15 -57 -3 -64 -8 -4 -26 -3 -40 0 -41 11 -28
76 15 76 9 0 21 -5 28 -12z m110 0 c18 -18 15 -56 -5 -66 -10 -6 -28 -6 -40
-1 -39 14 -25 79 17 79 9 0 21 -5 28 -12z m112 -7 c12 -24 4 -48 -21 -62 -14
-7 -23 -5 -39 11 -24 24 -25 34 -4 54 21 22 51 20 64 -3z m104 3 c19 -19 20
-26 4 -46 -23 -28 -47 -29 -64 -3 -30 46 21 88 60 49z m110 0 c19 -49 -13 -85
-52 -58 -24 17 -28 44 -10 62 17 17 55 15 62 -4z m224 4 c20 -20 14 -58 -10
-67 -31 -11 -47 -4 -54 25 -11 42 34 72 64 42z m112 -2 c6 -8 10 -25 8 -38 -2
-18 -10 -24 -35 -26 -28 -3 -33 1 -39 23 -11 45 37 75 66 41z m114 -8 c15 -25
-3 -52 -38 -56 -30 -4 -41 15 -32 54 5 20 12 25 33 22 14 -2 31 -11 37 -20z
m104 10 c28 -28 0 -81 -38 -71 -31 8 -42 36 -24 61 17 24 44 28 62 10z m112
-7 c21 -41 -21 -81 -58 -55 -38 26 -22 74 25 74 12 0 27 -9 33 -19z m104 -2
c17 -25 12 -45 -16 -60 -37 -20 -76 39 -46 69 18 18 45 14 62 -9z m104 9 c17
-17 15 -56 -5 -66 -24 -14 -63 6 -63 33 0 25 18 45 40 45 9 0 21 -5 28 -12z
m112 -2 c6 -8 10 -25 8 -38 -2 -19 -9 -23 -38 -23 -29 0 -36 4 -38 23 -4 28
14 52 38 52 10 0 23 -7 30 -14z m110 -1 c7 -9 10 -25 6 -40 -6 -22 -11 -26
-39 -23 -25 2 -33 8 -35 26 -7 44 41 70 68 37z m364 -1 c21 -20 20 -30 -4 -54
-17 -17 -24 -18 -41 -10 -27 15 -33 34 -19 59 13 25 42 27 64 5z m117 -12 c6
-17 3 -28 -12 -43 -18 -18 -23 -19 -42 -6 -12 8 -23 22 -25 31 -9 46 63 62 79
18z m99 13 c14 -17 6 -60 -12 -68 -25 -9 -58 12 -58 36 0 43 44 63 70 32z
m112 -11 c11 -23 10 -29 -11 -45 -31 -25 -61 -10 -61 31 0 46 53 56 72 14z
m424 18 c17 -11 22 -35 12 -54 -12 -24 -55 -23 -68 2 -20 38 20 76 56 52z
m118 -8 c19 -18 19 -20 6 -45 -13 -23 -52 -25 -70 -4 -10 12 -10 21 -2 40 13
29 43 33 66 9z m106 2 c6 -8 10 -25 8 -38 -6 -42 -78 -32 -78 11 0 37 46 55
70 27z m438 -22 c4 -44 -20 -62 -53 -40 -28 18 -30 28 -14 57 7 14 19 19 37
17 22 -2 28 -9 30 -34z m98 28 c32 -21 18 -72 -20 -72 -35 0 -52 25 -38 55 11
25 36 32 58 17z m110 0 c17 -11 22 -35 12 -54 -12 -24 -55 -23 -68 2 -20 38
20 76 56 52z m224 -6 c6 -8 10 -25 8 -38 -6 -42 -78 -32 -78 11 0 37 46 55 70
27z m110 0 c20 -25 8 -61 -21 -64 -36 -4 -55 21 -41 53 13 28 43 33 62 11z
m114 -8 c16 -26 -4 -53 -40 -53 -23 0 -30 5 -32 23 -7 47 47 69 72 30z m104
10 c28 -28 0 -81 -38 -71 -31 8 -42 36 -24 61 17 24 44 28 62 10z m112 -8 c24
-44 -38 -83 -70 -45 -10 12 -10 21 -2 40 14 31 56 34 72 5z m104 4 c19 -18 19
-20 6 -45 -13 -23 -52 -25 -70 -4 -10 12 -10 21 -2 40 13 29 43 33 66 9z
m-6065 -9 c61 -31 56 -121 -7 -143 -62 -21 -112 12 -112 73 1 33 14 55 45 73
27 15 41 15 74 -3z m187 -9 c21 -18 28 -32 28 -61 0 -43 -39 -85 -79 -85 -40
0 -79 42 -79 85 0 43 39 85 79 85 13 0 36 -11 51 -24z m163 9 c49 -25 57 -90
16 -130 -40 -40 -96 -30 -123 22 -19 35 -14 63 17 94 33 33 50 35 90 14z m181
0 c31 -16 45 -46 41 -85 -7 -65 -94 -87 -138 -35 -32 37 -29 71 8 106 35 33
48 35 89 14z m174 4 c36 -17 57 -64 44 -101 -20 -56 -87 -69 -135 -25 -32 29
-30 72 6 108 32 32 47 35 85 18z m197 -18 c34 -35 37 -68 8 -105 -16 -20 -29
-26 -60 -26 -79 0 -109 83 -48 134 40 34 64 33 100 -3z m166 10 c42 -26 53
-73 26 -110 -28 -37 -104 -43 -127 -9 -31 44 -18 101 29 126 28 16 35 15 72
-7z m-1232 -16 c30 -30 32 -64 4 -99 -45 -57 -149 -14 -135 57 13 65 85 89
131 42z m1420 0 c30 -30 32 -64 4 -99 -47 -59 -149 -15 -135 59 13 63 86 86
131 40z m425 -80 c10 -12 10 -21 2 -40 -19 -40 -82 -29 -82 15 0 37 55 55 80
25z m105 -5 c14 -46 -14 -71 -59 -54 -19 7 -22 60 -3 67 29 12 56 6 62 -13z
m113 -18 c4 -36 -13 -48 -53 -38 -19 5 -25 13 -25 35 0 32 12 41 50 38 20 -2
26 -8 28 -35z m102 23 c20 -24 -3 -65 -35 -65 -32 0 -55 41 -35 65 7 8 23 15
35 15 12 0 28 -7 35 -15z m110 -5 c15 -28 -4 -60 -36 -60 -31 0 -54 41 -34 65
18 21 57 19 70 -5z m108 -17 c4 -41 -24 -60 -56 -37 -40 28 -20 78 28 72 20
-2 26 -9 28 -35z m227 3 c0 -52 -63 -62 -73 -12 -7 33 6 47 40 44 29 -3 33 -7
33 -32z m113 -3 c3 -28 -1 -33 -23 -39 -31 -8 -55 10 -55 41 0 30 9 36 45 33
26 -3 30 -7 33 -35z m106 15 c15 -25 -3 -52 -38 -56 -20 -3 -28 2 -35 20 -13
33 4 60 36 56 14 -2 31 -11 37 -20z m112 -3 c4 -15 1 -32 -6 -40 -18 -21 -57
-19 -70 5 -16 30 4 60 40 60 23 0 31 -5 36 -25z m104 5 c8 -14 8 -26 0 -40
-19 -35 -80 -20 -80 20 0 40 61 55 80 20z m110 5 c19 -23 -3 -65 -34 -65 -32
0 -50 24 -42 55 5 19 13 25 35 25 16 0 34 -7 41 -15z m108 -23 c4 -36 -13 -48
-53 -38 -19 5 -25 13 -25 35 0 36 8 43 45 39 26 -3 30 -7 33 -36z m109 15 c14
-30 -1 -57 -30 -57 -29 0 -47 18 -47 46 0 39 61 47 77 11z m97 17 c31 -12 16
-74 -18 -74 -28 0 -46 18 -46 46 0 29 29 42 64 28z m264 -6 c30 -30 0 -75 -42
-64 -29 7 -40 31 -26 57 12 21 50 25 68 7z m112 -3 c10 -12 10 -21 2 -40 -19
-40 -82 -29 -82 15 0 37 55 55 80 25z m110 0 c10 -12 10 -21 2 -40 -19 -40
-82 -29 -82 15 0 37 55 55 80 25z m106 0 c10 -26 -5 -65 -25 -65 -36 0 -51 12
-51 39 0 15 3 31 7 34 12 13 64 7 69 -8z m110 -10 c8 -33 -12 -57 -45 -53 -18
2 -27 10 -29 26 -6 37 5 52 37 52 24 0 32 -5 37 -25z m104 10 c10 -12 10 -21
2 -40 -14 -31 -56 -34 -72 -5 -24 44 38 83 70 45z m328 -2 c15 -29 -3 -63 -33
-63 -32 0 -55 41 -35 65 17 20 57 19 68 -2z m112 2 c20 -24 -3 -65 -35 -65
-32 0 -55 41 -35 65 7 8 23 15 35 15 12 0 28 -7 35 -15z m94 9 c10 -4 16 -18
16 -35 0 -22 -6 -30 -25 -35 -43 -11 -73 34 -43 64 13 13 28 15 52 6z m121
-34 c0 -29 -4 -36 -23 -38 -43 -6 -69 37 -40 66 7 7 24 12 38 10 21 -3 25 -8
25 -38z m325 20 c8 -14 8 -26 0 -40 -19 -35 -80 -20 -80 20 0 40 61 55 80 20z
m110 0 c15 -28 -4 -60 -36 -60 -31 0 -54 41 -34 65 18 21 57 19 70 -5z m110 0
c8 -14 8 -26 0 -40 -19 -35 -80 -20 -80 20 0 40 61 55 80 20z m218 -17 c3 -28
-1 -33 -23 -39 -36 -9 -60 15 -51 51 6 22 11 26 39 23 28 -3 32 -7 35 -35z
m110 0 c3 -28 -1 -33 -23 -39 -29 -7 -55 10 -55 35 0 25 22 42 50 39 20 -2 26
-9 28 -35z m96 31 c19 -7 21 -45 4 -62 -34 -34 -90 6 -68 48 11 20 35 25 64
14z m120 -10 c18 -46 -9 -79 -50 -64 -47 18 -35 80 15 80 17 0 31 -6 35 -16z
m106 1 c10 -12 10 -21 2 -40 -19 -40 -82 -29 -82 15 0 37 55 55 80 25z m110 0
c17 -20 3 -54 -27 -61 -34 -9 -58 16 -49 50 5 20 13 26 35 26 16 0 34 -7 41
-15z m105 -5 c10 -32 -4 -60 -29 -60 -26 0 -46 17 -46 40 0 40 63 57 75 20z
m-6355 -75 c53 -27 54 -97 2 -131 -28 -19 -38 -21 -63 -12 -64 22 -79 90 -28
132 35 30 49 32 89 11z m195 -10 c27 -27 33 -79 12 -106 -33 -43 -84 -47 -125
-9 -50 46 -11 140 58 140 19 0 40 -9 55 -25z m166 12 c47 -36 47 -103 -2 -139
l-29 -21 23 -11 c12 -6 29 -25 38 -42 l15 -31 20 35 c11 22 29 39 44 42 25 6
25 7 3 14 -31 10 -63 54 -63 86 0 36 44 80 80 80 42 0 80 -35 80 -75 0 -48 -8
-64 -43 -82 l-32 -16 24 -9 c35 -12 50 -38 51 -80 0 -79 -85 -107 -141 -47
l-29 31 -12 -26 c-6 -15 -22 -29 -34 -32 -23 -6 -22 -7 13 -40 32 -30 35 -38
30 -71 -8 -46 -38 -73 -81 -73 -86 1 -112 109 -38 153 35 21 36 21 11 27 -15
3 -31 19 -42 42 -16 33 -17 40 -3 72 10 24 23 37 41 42 l26 6 -31 19 c-76 47
-51 158 35 158 17 0 37 -5 46 -12z m363 -12 c59 -54 16 -142 -67 -136 -26 2
-67 50 -67 78 0 32 51 83 83 83 13 0 36 -11 51 -25z m165 10 c51 -26 58 -88
15 -127 -52 -45 -133 -8 -128 60 2 36 18 60 49 72 28 12 33 12 64 -5z m200
-21 c28 -35 26 -69 -4 -99 -49 -50 -135 -15 -135 55 0 68 96 98 139 44z m156
20 c8 -4 22 -19 30 -35 39 -74 -61 -146 -123 -89 -29 27 -29 83 -2 110 20 20
63 26 95 14z m186 -13 c52 -42 17 -131 -51 -131 -44 0 -74 31 -74 75 0 44 30
75 74 75 15 0 38 -8 51 -19z m316 -18 c13 -19 12 -24 -6 -42 -13 -13 -27 -18
-38 -14 -35 13 -42 42 -17 68 21 20 43 16 61 -12z m107 6 c17 -24 12 -45 -14
-59 -26 -14 -49 -2 -57 28 -4 18 -1 29 12 39 26 18 42 16 59 -8z m97 11 c25
-14 25 -56 -1 -70 -45 -24 -86 44 -42 69 21 13 20 13 43 1z m1000 -14 c25 -54
-35 -89 -68 -39 -13 19 -12 24 6 42 28 28 49 26 62 -3z m106 -2 c12 -19 11
-24 -5 -45 -19 -22 -20 -22 -46 -6 -30 20 -33 39 -10 62 21 20 43 16 61 -11z
m107 7 c19 -21 13 -47 -14 -61 -25 -14 -49 -2 -56 26 -12 47 37 72 70 35z
m470 3 c22 -21 20 -40 -6 -58 -39 -28 -79 13 -52 53 18 25 37 27 58 5z m110 0
c9 -8 16 -22 16 -29 0 -15 -27 -45 -41 -45 -17 0 -50 41 -43 53 24 41 43 47
68 21z m108 -1 c10 -9 18 -21 18 -26 0 -15 -31 -47 -46 -47 -17 0 -44 28 -44
45 0 16 27 45 42 45 6 0 20 -7 30 -17z m322 1 c9 -8 16 -22 16 -29 0 -17 -27
-45 -44 -45 -20 0 -36 22 -36 51 0 39 36 52 64 23z m110 0 c9 -8 16 -22 16
-29 0 -18 -27 -45 -45 -45 -21 0 -47 31 -41 47 3 8 6 18 6 23 0 7 16 14 42 19
4 0 14 -6 22 -15z m110 0 c20 -20 20 -38 0 -59 -21 -20 -43 -16 -61 12 -13 19
-12 24 6 42 25 25 35 26 55 5z m223 -11 c13 -19 12 -24 -6 -42 -25 -25 -35
-26 -55 -5 -20 20 -20 38 0 59 21 20 43 16 61 -12z m107 11 c27 -26 18 -56
-20 -68 -24 -7 -54 15 -54 39 0 18 27 45 45 45 7 0 21 -7 29 -16z m97 6 c25
-14 25 -56 -1 -70 -44 -23 -80 29 -44 64 18 19 20 19 45 6z m117 -2 c17 -17
15 -53 -3 -68 -24 -20 -65 3 -65 34 0 37 43 59 68 34z m112 -8 c22 -41 -12
-81 -50 -60 -27 14 -33 40 -14 61 22 25 51 24 64 -1z m214 -1 c20 -30 3 -68
-31 -69 -16 0 -43 28 -43 45 0 18 28 45 45 45 8 0 21 -10 29 -21z m106 1 c26
-26 10 -69 -27 -70 -16 0 -43 28 -43 45 0 15 27 45 41 45 5 0 18 -9 29 -20z
m109 11 c30 -19 11 -80 -26 -81 -16 0 -43 28 -43 45 0 17 27 45 43 45 7 0 18
-4 26 -9z m212 -1 c11 -6 19 -21 19 -35 0 -20 -24 -45 -44 -45 -10 0 -36 32
-36 45 0 13 26 45 36 45 3 0 14 -5 25 -10z m117 -2 c25 -25 4 -78 -32 -78 -10
0 -36 32 -36 45 0 17 27 45 44 45 6 0 17 -5 24 -12z m103 2 c25 -14 25 -56 -1
-70 -45 -24 -86 44 -42 69 21 13 20 13 43 1z m333 -12 c21 -30 20 -35 -8 -53
-41 -27 -80 10 -56 55 14 26 45 26 64 -2z m104 10 c17 -17 15 -53 -3 -68 -24
-20 -65 3 -65 34 0 37 43 59 68 34z m103 2 c11 -6 19 -21 19 -35 0 -20 -24
-45 -44 -45 -10 0 -36 32 -36 45 0 13 26 45 36 45 3 0 14 -5 25 -10z m-4713
-109 c8 -5 12 -21 10 -37 -3 -32 -38 -45 -64 -24 -38 33 11 89 54 61z m108 1
c31 -21 18 -72 -19 -72 -44 0 -64 49 -29 69 20 12 33 13 48 3z m112 -4 c18
-18 15 -56 -5 -66 -10 -6 -28 -6 -40 -1 -29 11 -33 65 -5 72 30 8 38 7 50 -5z
m990 0 c17 -17 15 -44 -4 -62 -20 -21 -30 -20 -54 4 -24 24 -25 34 -4 54 18
19 45 21 62 4z m106 -4 c21 -20 20 -30 -5 -55 -18 -18 -23 -19 -42 -6 -28 18
-32 40 -12 61 21 20 39 20 59 0z m110 0 c19 -19 20 -26 4 -46 -29 -35 -78 -23
-78 21 0 38 45 54 74 25z m470 0 c29 -29 12 -64 -31 -64 -19 0 -43 25 -43 44
0 10 32 36 45 36 7 0 21 -7 29 -16z m111 0 c20 -21 16 -43 -12 -61 -19 -13
-24 -12 -42 6 -13 13 -18 27 -14 38 13 35 42 42 68 17z m110 0 c20 -20 16 -42
-10 -60 -18 -12 -24 -11 -43 2 -26 18 -29 49 -4 63 24 15 38 13 57 -5z m325 1
c29 -35 -14 -85 -54 -63 -16 9 -22 58 -9 71 12 12 50 7 63 -8z m110 -4 c14
-27 13 -37 -6 -55 -20 -21 -30 -20 -54 4 -24 24 -25 34 -4 54 21 22 51 20 64
-3z m105 6 c13 -10 16 -21 12 -39 -9 -34 -43 -42 -68 -17 -23 23 -24 33 -3 53
19 20 35 20 59 3z m211 5 c31 -21 18 -72 -19 -72 -43 0 -60 35 -31 64 17 17
33 20 50 8z m118 -8 c19 -18 19 -20 6 -45 -18 -32 -80 -19 -80 17 0 17 28 44
45 44 7 0 21 -7 29 -16z m100 10 c24 -9 21 -61 -4 -74 -45 -24 -86 44 -42 69
20 12 25 13 46 5z m110 0 c22 -8 21 -61 -1 -72 -28 -15 -63 3 -63 32 0 34 31
53 64 40z m114 -6 c16 -16 15 -44 -3 -62 -17 -17 -43 -12 -62 12 -17 20 -16
27 3 46 18 19 45 21 62 4z m106 -4 c22 -21 20 -40 -6 -58 -37 -26 -79 14 -58
55 13 23 43 25 64 3z m110 0 c20 -20 20 -27 -1 -53 -23 -27 -61 -18 -70 17
-10 42 40 68 71 36z m110 0 c21 -20 20 -30 -3 -53 -25 -25 -59 -17 -68 17 -10
42 40 68 71 36z m110 0 c21 -20 20 -30 -3 -53 -25 -25 -59 -17 -68 17 -10 42
40 68 71 36z m216 2 c6 -8 10 -25 8 -38 -2 -18 -10 -24 -35 -26 -28 -3 -33 0
-39 24 -11 42 39 72 66 40z m108 5 c8 -5 12 -21 10 -37 -2 -24 -8 -29 -35 -32
-28 -3 -33 0 -39 24 -10 39 30 67 64 45z m106 -4 c24 -18 17 -58 -12 -68 -17
-6 -27 -4 -42 11 -24 24 -25 34 -4 54 19 19 35 20 58 3z m330 -3 c19 -18 19
-20 6 -45 -7 -12 -21 -19 -40 -19 -23 0 -31 5 -36 25 -12 47 36 73 70 39z
m104 4 c18 -18 15 -56 -5 -66 -28 -15 -63 3 -63 32 0 37 43 59 68 34z m113 2
c6 0 9 -15 7 -32 -3 -29 -7 -33 -35 -36 -28 -3 -33 0 -39 24 -5 20 -2 31 12
41 10 7 25 11 32 8 8 -3 18 -5 23 -5z m-6447 -61 c54 -43 21 -139 -49 -139
-40 0 -72 23 -80 58 -17 80 65 131 129 81z m183 -1 c31 -29 32 -89 1 -118 -33
-30 -91 -27 -117 6 -63 80 42 181 116 112z m527 1 c20 -16 26 -29 26 -59 0
-83 -108 -112 -145 -39 -21 40 -19 57 14 90 35 34 68 37 105 8z m181 -4 c37
-37 37 -78 -1 -112 -39 -36 -101 -24 -122 22 -37 80 62 152 123 90z m185 -7
c53 -63 -14 -149 -93 -119 -36 14 -53 51 -41 93 17 59 94 74 134 26z m171 3
c16 -16 29 -39 29 -51 0 -30 -53 -80 -85 -80 -33 0 -75 42 -75 75 0 78 76 110
131 56z m147 18 c64 -22 64 -113 0 -140 -26 -10 -35 -10 -57 2 -39 22 -55 62
-39 96 10 21 46 50 64 53 1 0 15 -5 32 -11z m767 -63 c31 -47 -20 -89 -59 -50
-21 20 -20 30 4 54 26 26 36 25 55 -4z m111 -3 c18 -21 5 -52 -24 -60 -18 -4
-29 -1 -39 12 -36 51 24 97 63 48z m774 -3 c12 -22 4 -46 -17 -54 -46 -18 -81
35 -44 65 25 20 47 16 61 -11z m100 10 c11 -11 20 -24 20 -29 0 -16 -30 -41
-49 -41 -38 0 -54 45 -25 74 20 21 30 20 54 -4z m595 -10 c12 -37 -18 -67 -55
-55 -26 8 -32 43 -10 65 22 22 57 16 65 -10z m427 6 c23 -33 -12 -74 -52 -61
-25 8 -27 60 -3 73 18 11 44 5 55 -12z m862 8 c34 -33 8 -82 -38 -70 -32 8
-40 42 -15 67 23 23 33 24 53 3z m104 0 c26 -18 28 -37 6 -58 -39 -39 -90 3
-59 50 18 28 23 29 53 8z m1102 -15 c14 -25 2 -48 -28 -56 -41 -10 -68 40 -37
70 18 18 52 11 65 -14z m-4390 2 c18 -36 -11 -68 -50 -56 -22 7 -32 31 -25 56
9 26 61 26 75 0z m108 -12 c4 -33 -20 -53 -53 -45 -19 5 -25 13 -25 35 0 36 8
43 45 39 24 -2 31 -8 33 -29z m110 -7 c4 -36 -13 -48 -52 -38 -29 7 -36 23
-25 54 7 19 15 23 41 20 29 -3 33 -7 36 -36z m878 12 c9 -34 -15 -59 -49 -50
-51 12 -40 76 13 76 24 0 31 -5 36 -26z m689 7 c12 -38 -18 -68 -55 -56 -24 8
-32 32 -20 56 14 26 66 26 75 0z m215 0 c15 -29 12 -40 -14 -52 -45 -21 -87
26 -54 59 18 18 56 14 68 -7z m432 -6 c9 -21 9 -29 -4 -42 -19 -19 -63 -11
-72 13 -18 48 54 76 76 29z m106 13 c30 -30 -5 -77 -47 -63 -24 7 -31 24 -20
53 9 24 47 30 67 10z m220 -24 c2 -22 -2 -33 -14 -38 -25 -9 -52 2 -59 25 -9
27 13 51 44 47 21 -2 27 -9 29 -34z m112 17 c19 -36 -11 -68 -51 -56 -23 8
-34 42 -19 60 18 21 57 18 70 -4z m108 -18 c3 -28 -1 -33 -23 -39 -36 -9 -60
15 -51 51 6 22 11 26 39 23 28 -3 32 -7 35 -35z m432 17 c8 -14 8 -26 0 -40
-19 -35 -80 -20 -80 20 0 40 61 55 80 20z m110 1 c21 -39 -19 -73 -60 -51 -22
12 -26 40 -8 58 18 18 56 14 68 -7z m110 0 c21 -39 -19 -73 -60 -51 -22 12
-26 40 -8 58 18 18 56 14 68 -7z m218 -9 c4 -25 -13 -52 -32 -52 -28 0 -49 27
-42 54 6 24 11 27 39 24 25 -2 33 -8 35 -26z m110 0 c4 -25 -13 -52 -32 -52
-28 0 -49 27 -42 54 6 24 11 27 39 24 25 -2 33 -8 35 -26z m108 2 c9 -34 -15
-59 -49 -50 -51 12 -40 76 13 76 24 0 31 -5 36 -26z m430 1 c11 -43 -34 -73
-64 -43 -27 27 -6 68 35 68 16 0 24 -7 29 -25z m112 -12 c3 -28 -1 -33 -23
-39 -29 -7 -55 10 -55 35 0 25 22 42 50 39 20 -2 26 -9 28 -35z m-4508 -83
c22 -22 18 -45 -11 -61 -44 -23 -84 45 -41 70 24 15 29 14 52 -9z m108 8 c16
-16 15 -53 -2 -67 -8 -7 -25 -9 -40 -5 -20 5 -26 12 -26 35 0 40 42 63 68 37z
m101 3 c30 -19 11 -80 -26 -81 -16 0 -43 28 -43 45 0 17 27 45 43 45 7 0 18
-4 26 -9z m110 -10 c25 -25 17 -59 -17 -68 -42 -10 -68 40 -36 71 20 21 30 20
53 -3z m109 7 c17 -17 15 -53 -3 -68 -12 -10 -21 -10 -40 -2 -29 13 -33 43 -9
66 19 19 36 20 52 4z m556 -4 c34 -33 8 -82 -36 -68 -41 12 -47 35 -18 64 24
24 34 25 54 4z m110 -6 c13 -19 14 -25 2 -43 -18 -26 -40 -30 -60 -10 -20 21
-20 39 0 59 21 22 40 20 58 -6z m90 16 c31 -12 38 -42 16 -64 -27 -27 -48 -25
-61 4 -8 17 -8 29 0 45 12 22 20 25 45 15z m501 -24 c12 -38 -20 -69 -55 -50
-27 15 -32 38 -11 59 23 23 58 18 66 -9z m99 14 c9 -8 16 -22 16 -29 0 -13
-26 -45 -36 -45 -14 0 -42 21 -48 35 -6 15 25 55 43 55 5 0 17 -7 25 -16z
m106 -4 c28 -28 24 -50 -13 -63 -44 -16 -75 34 -41 67 20 21 30 20 54 -4z
m114 4 c9 -8 16 -22 16 -29 0 -16 -27 -45 -41 -45 -44 0 -67 59 -31 79 24 15
38 13 56 -5z m104 4 c17 -17 15 -53 -3 -68 -24 -20 -65 3 -65 34 0 37 43 59
68 34z m106 -4 c9 -8 16 -22 16 -29 0 -17 -27 -45 -44 -45 -19 0 -36 22 -36
45 0 41 36 58 64 29z m110 0 c9 -8 16 -22 16 -29 0 -7 -7 -21 -16 -29 -8 -9
-22 -16 -29 -16 -14 0 -45 26 -45 38 0 15 32 52 45 52 7 0 21 -7 29 -16z m110
0 c22 -21 20 -51 -3 -64 -27 -14 -37 -13 -55 6 -21 20 -20 30 4 54 24 24 34
25 54 4z m220 -6 c13 -19 14 -25 2 -43 -18 -26 -40 -30 -60 -10 -20 21 -20 39
0 59 21 22 40 20 58 -6z m110 3 c24 -26 4 -70 -31 -71 -16 0 -43 28 -43 45 0
17 27 45 44 45 7 0 20 -8 30 -19z m97 9 c28 -15 26 -66 -3 -73 -48 -13 -82 48
-40 72 21 13 20 13 43 1z m333 -6 c9 -8 16 -22 16 -29 0 -17 -27 -45 -43 -45
-24 0 -39 18 -39 45 0 42 37 59 66 29z m102 8 c21 -13 25 -49 9 -66 -19 -19
-29 -20 -56 -6 -23 13 -25 43 -3 64 17 17 33 20 50 8z m114 -12 c28 -28 24
-50 -13 -63 -44 -16 -75 34 -41 67 20 21 30 20 54 -4z m110 0 c24 -24 25 -34
4 -54 -18 -19 -28 -20 -55 -6 -23 13 -25 43 -3 64 20 21 30 20 54 -4z m211 10
c11 -6 19 -21 19 -35 0 -20 -24 -45 -44 -45 -10 0 -36 32 -36 45 0 13 26 45
36 45 3 0 14 -5 25 -10z m110 0 c11 -6 19 -21 19 -35 0 -20 -24 -45 -44 -45
-10 0 -36 32 -36 45 0 13 26 45 36 45 3 0 14 -5 25 -10z m110 0 c26 -14 25
-56 -2 -70 -16 -9 -26 -8 -45 5 -29 19 -30 29 -4 55 23 23 25 23 51 10z m327
-6 c12 -8 22 -21 22 -29 0 -13 -36 -45 -52 -45 -12 0 -38 31 -38 45 0 14 26
45 38 45 4 0 18 -7 30 -16z m110 4 c17 -17 15 -53 -3 -68 -24 -20 -65 3 -65
34 0 37 43 59 68 34z m122 -33 c0 -31 -32 -50 -60 -35 -30 16 -24 60 10 72 24
8 50 -11 50 -37z m-6271 4 c14 -14 21 -32 21 -59 0 -72 -84 -107 -135 -55 -43
42 -29 106 27 130 36 15 58 11 87 -16z m345 6 c55 -51 23 -145 -50 -145 -92 0
-116 119 -31 155 44 19 50 19 81 -10z m-529 -10 c40 -39 32 -96 -15 -120 -72
-37 -144 37 -103 105 27 46 81 53 118 15z m715 5 c31 -31 36 -68 13 -98 -40
-53 -105 -55 -136 -3 -23 40 -21 67 8 96 31 31 86 34 115 5z m166 12 c19 -13
44 -56 44 -75 0 -31 -54 -77 -90 -77 -38 0 -80 41 -80 80 0 40 42 80 82 80 18
0 38 -4 44 -8z m189 -17 c50 -49 15 -135 -55 -135 -41 0 -80 39 -80 80 0 41
39 80 80 80 19 0 40 -9 55 -25z m168 5 c35 -28 41 -53 22 -89 -20 -39 -48 -54
-86 -46 -59 13 -79 86 -34 130 29 30 64 32 98 5z m155 14 c23 -7 52 -50 52
-79 0 -9 -13 -29 -28 -45 -50 -49 -122 -19 -122 51 0 29 6 42 26 58 29 23 36
24 72 15z m875 -92 c22 -24 11 -61 -21 -69 -42 -10 -68 40 -36 71 20 21 37 20
57 -2z m105 6 c7 -7 12 -25 12 -40 0 -21 -6 -29 -25 -34 -47 -12 -73 36 -39
70 19 19 36 20 52 4z m125 -28 c5 -20 -15 -50 -34 -50 -22 0 -49 22 -49 40 0
26 38 52 60 40 10 -5 20 -19 23 -30z m439 14 c22 -47 -24 -83 -63 -48 -24 22
-24 29 1 54 27 27 48 25 62 -6z m103 6 c17 -18 17 -21 1 -45 -19 -29 -38 -32
-60 -9 -21 21 -20 51 2 63 25 15 37 13 57 -9z m110 0 c17 -18 17 -21 1 -45
-27 -40 -76 -28 -76 20 0 44 44 59 75 25z m467 3 c22 -20 23 -37 2 -57 -22
-23 -41 -20 -61 10 -16 26 -16 27 6 45 28 23 30 23 53 2z m124 -5 c11 -17 -6
-57 -27 -63 -22 -7 -59 18 -59 41 0 32 69 50 86 22z m104 -9 c15 -27 12 -37
-11 -50 -50 -26 -94 33 -48 65 24 17 45 12 59 -15z m105 7 c21 -31 5 -66 -28
-66 -44 0 -61 38 -30 72 22 24 39 23 58 -6z m105 10 c16 -20 9 -56 -12 -70
-40 -24 -80 44 -42 71 23 17 39 16 54 -1z m105 0 c16 -12 18 -19 10 -42 -17
-48 -75 -40 -75 10 0 42 31 57 65 32z m101 6 c32 -22 20 -82 -16 -82 -19 0
-50 25 -50 41 0 11 37 49 48 49 4 0 12 -4 18 -8z m116 -9 c24 -21 23 -50 -1
-63 -27 -14 -37 -13 -55 6 -21 20 -20 30 4 54 24 24 28 25 52 3z m218 -3 c26
-26 10 -69 -27 -70 -16 0 -43 28 -43 45 0 15 27 45 41 45 5 0 18 -9 29 -20z
m108 4 c12 -8 22 -21 22 -29 0 -17 -27 -45 -45 -45 -18 0 -45 27 -45 45 0 14
26 45 38 45 4 0 18 -7 30 -16z m106 3 c38 -27 -2 -95 -41 -71 -24 15 -28 48
-8 68 20 19 26 20 49 3z m441 -11 c13 -19 14 -29 5 -45 -12 -23 -31 -26 -61
-11 -23 13 -24 37 -2 62 22 24 39 23 58 -6z m105 4 c24 -24 25 -34 4 -54 -18
-19 -28 -20 -55 -6 -23 13 -24 37 -2 62 21 23 28 23 53 -2z m120 -10 c21 -38
-19 -72 -60 -50 -26 14 -26 45 1 64 24 17 45 12 59 -14z m201 20 c22 -13 25
-52 4 -70 -22 -18 -49 -8 -60 24 -8 23 -6 30 10 42 23 17 21 17 46 4z m110 0
c22 -13 25 -52 4 -70 -22 -18 -49 -8 -60 24 -8 23 -6 30 10 42 23 17 21 17 46
4z m112 -4 c31 -24 15 -76 -23 -76 -9 0 -25 9 -34 19 -14 15 -15 24 -7 39 9
18 25 29 41 31 3 0 13 -6 23 -13z m325 -2 c27 -19 28 -36 3 -58 -26 -24 -54
-17 -66 18 -8 23 -6 30 10 42 24 18 26 17 53 -2z m112 2 c28 -35 -11 -93 -47
-70 -25 16 -28 42 -7 65 20 23 37 24 54 5z m104 1 c38 -27 -2 -96 -41 -71 -25
16 -28 42 -7 65 20 23 25 23 48 6z m-6439 -112 c36 -35 33 -76 -7 -110 -23
-20 -38 -25 -57 -20 -41 10 -65 40 -65 81 0 69 80 99 129 49z m182 3 c46 -43
21 -122 -44 -134 -27 -5 -37 -1 -63 24 -35 36 -38 69 -9 106 27 34 82 36 116
4z m169 14 c44 -29 41 -113 -6 -137 -41 -21 -64 -19 -96 9 -36 30 -38 91 -4
118 22 18 85 24 106 10z m186 -9 c18 -16 25 -87 10 -109 -29 -44 -113 -41
-137 6 -20 39 -19 62 6 94 16 20 29 26 61 26 25 0 49 -7 60 -17z m181 -1 c9
-10 20 -32 23 -50 5 -26 1 -36 -24 -62 -32 -32 -56 -37 -95 -19 -47 21 -60 80
-26 123 16 21 29 26 63 26 29 0 48 -6 59 -18z m166 8 c10 -5 24 -22 30 -39 24
-56 -34 -122 -93 -107 -61 15 -84 81 -45 130 22 28 72 36 108 16z m190 -16
c26 -33 27 -75 2 -105 -14 -18 -29 -24 -61 -24 -50 0 -80 30 -80 79 0 46 31
76 80 76 30 0 43 -6 59 -26z m180 0 c29 -37 26 -70 -9 -106 -26 -25 -36 -29
-63 -24 -41 8 -67 39 -67 82 0 47 29 74 79 74 31 0 44 -6 60 -26z m162 7 c49
-39 17 -133 -45 -133 -57 0 -93 50 -74 102 18 50 77 65 119 31z m853 -7 c20
-20 20 -27 -2 -54 -34 -42 -88 1 -62 50 13 24 43 26 64 4z m104 4 c24 -24 8
-78 -24 -78 -17 0 -44 28 -44 45 0 17 27 45 44 45 6 0 17 -5 24 -12z m110 0
c24 -24 8 -78 -24 -78 -17 0 -44 28 -44 45 0 17 27 45 44 45 6 0 17 -5 24 -12z
m450 0 c16 -16 15 -40 -2 -63 -12 -17 -18 -18 -40 -7 -41 19 -31 82 14 82 9 0
21 -5 28 -12z m112 -9 c9 -16 8 -26 -5 -45 -8 -13 -21 -24 -27 -24 -18 0 -48
31 -48 50 0 40 61 55 80 19z m104 5 c21 -20 20 -30 -4 -54 -11 -11 -24 -20
-29 -20 -16 0 -41 30 -41 49 0 38 45 54 74 25z m470 0 c9 -8 16 -22 16 -29 0
-18 -28 -45 -45 -45 -8 0 -22 11 -31 25 -16 24 -16 27 1 45 22 24 38 25 59 4z
m107 6 c23 -13 25 -43 3 -64 -22 -23 -41 -20 -60 9 -16 24 -16 27 1 45 21 23
29 24 56 10z m111 -7 c23 -21 23 -36 -3 -59 -22 -19 -43 -13 -63 19 -8 12 -5
21 8 36 23 25 34 26 58 4z m323 4 c23 -18 14 -63 -16 -72 -27 -9 -49 11 -49
45 0 39 31 51 65 27z m109 -3 c19 -18 19 -16 6 -49 -12 -31 -45 -31 -66 0 -12
18 -11 24 2 43 18 26 37 28 58 6z m110 0 c20 -20 20 -38 0 -59 -20 -20 -42
-16 -60 10 -12 18 -11 24 2 43 18 26 37 28 58 6z m220 0 c20 -20 20 -27 -2
-54 -23 -29 -59 -20 -68 17 -11 43 38 69 70 37z m111 0 c24 -25 4 -73 -32 -74
-18 0 -43 29 -43 50 0 19 24 39 47 40 6 0 19 -7 28 -16z m103 4 c17 -17 15
-53 -3 -68 -24 -20 -65 3 -65 34 0 37 43 59 68 34z m439 -10 c13 -29 -3 -68
-28 -68 -21 0 -49 26 -49 45 0 19 28 45 49 45 10 0 22 -10 28 -22z m107 0 c13
-19 14 -25 2 -43 -18 -26 -40 -30 -60 -10 -20 21 -20 39 0 59 21 22 40 20 58
-6z m110 0 c13 -19 14 -25 2 -43 -18 -26 -40 -30 -60 -10 -20 21 -20 39 0 59
21 22 40 20 58 -6z m207 12 c40 -22 13 -89 -30 -75 -30 9 -39 54 -16 72 22 16
21 16 46 3z m126 -16 c12 -19 11 -24 -5 -44 -13 -17 -24 -21 -40 -16 -31 10
-41 55 -16 73 24 17 43 13 61 -13z m94 16 c25 -14 25 -56 -1 -70 -41 -22 -80
21 -54 59 17 24 27 26 55 11z m334 -10 c17 -18 17 -21 1 -45 -22 -34 -57 -30
-70 7 -18 50 33 78 69 38z m103 8 c30 -30 2 -86 -37 -73 -30 9 -39 54 -16 72
23 16 37 17 53 1z m103 2 c11 -6 19 -21 19 -35 0 -20 -24 -45 -44 -45 -10 0
-36 32 -36 45 0 13 26 45 36 45 3 0 14 -5 25 -10z m-4373 -137 c-7 -56 -69
-55 -76 1 -3 20 2 28 20 35 33 13 60 -4 56 -36z m320 -6 c-2 -26 -8 -33 -30
-35 -46 -5 -65 70 -20 81 32 7 53 -12 50 -46z m546 37 c20 -19 20 -48 1 -64
-19 -16 -45 -9 -62 17 -13 19 -12 24 6 42 25 25 35 26 55 5z m109 -5 c27 -37
-1 -77 -43 -64 -22 7 -33 31 -25 56 5 15 18 23 47 28 4 0 13 -8 21 -20z m96
11 c28 -14 34 -40 15 -61 -20 -22 -45 -24 -62 -7 -17 17 -15 44 4 62 18 19 20
19 43 6z m2887 -26 c7 -28 -10 -54 -35 -54 -43 0 -58 64 -18 79 30 11 46 4 53
-25z m-4288 -11 c2 -24 -1 -33 -17 -38 -24 -7 -61 10 -61 30 0 33 13 46 44 43
27 -3 31 -7 34 -35z m112 18 c14 -27 3 -50 -27 -57 -34 -9 -58 16 -49 50 5 21
12 26 36 26 19 0 33 -7 40 -19z m108 -12 c4 -33 -20 -53 -53 -45 -19 5 -25 13
-25 35 0 36 8 43 45 39 24 -2 31 -8 33 -29z m217 11 c8 -26 -11 -60 -35 -60
-25 0 -53 29 -46 47 3 8 6 19 6 24 0 5 15 9 34 9 26 0 36 -5 41 -20z m103 3
c16 -31 -4 -63 -40 -63 -22 0 -39 31 -31 58 7 28 58 31 71 5z m1352 2 c14 -17
5 -51 -17 -59 -22 -9 -50 1 -57 20 -16 41 45 73 74 39z m110 0 c10 -12 10 -21
2 -40 -16 -35 -61 -32 -74 5 -14 41 44 69 72 35z m110 -4 c14 -26 3 -50 -26
-57 -42 -11 -72 34 -42 64 18 18 56 14 68 -7z m326 -7 c4 -17 1 -31 -9 -41
-10 -10 -24 -13 -41 -9 -20 5 -26 13 -26 35 0 15 3 31 7 34 3 4 19 7 34 7 22
0 30 -6 35 -26z m104 6 c23 -44 -29 -80 -64 -44 -19 18 -19 20 -6 45 14 25 56
25 70 -1z m108 8 c30 -30 0 -75 -43 -64 -19 5 -25 13 -25 35 0 15 3 31 7 34
11 11 48 8 61 -5z m220 -4 c20 -36 -10 -71 -48 -59 -22 7 -32 31 -25 56 8 24
60 26 73 3z m112 -3 c19 -36 -11 -68 -51 -56 -23 8 -34 42 -19 60 18 21 57 18
70 -4z m108 -18 c3 -28 -1 -33 -23 -39 -36 -9 -60 15 -51 51 6 22 11 26 39 23
28 -3 32 -7 35 -35z m432 17 c15 -28 -4 -60 -36 -60 -31 0 -54 41 -34 65 18
21 57 19 70 -5z m110 1 c18 -36 -11 -68 -50 -56 -22 7 -30 26 -23 54 7 28 58
29 73 2z m110 0 c19 -36 -11 -68 -51 -56 -23 8 -34 42 -19 60 18 21 57 18 70
-4z m218 -9 c4 -28 -14 -52 -38 -52 -26 0 -43 26 -36 55 6 22 11 26 39 23 25
-2 33 -8 35 -26z m110 -9 c3 -28 -1 -33 -23 -39 -36 -9 -60 15 -51 51 6 22 11
26 39 23 28 -3 32 -7 35 -35z m108 12 c11 -43 -34 -73 -64 -43 -13 13 -16 50
-5 61 3 4 19 7 34 7 22 0 30 -6 35 -25z m214 5 c14 -26 -3 -60 -30 -60 -21 0
-50 25 -50 44 0 37 62 49 80 16z m110 1 c14 -27 3 -50 -27 -57 -34 -9 -58 16
-49 50 5 21 12 26 36 26 19 0 33 -7 40 -19z m108 -9 c4 -28 -14 -52 -38 -52
-26 0 -43 26 -36 55 6 22 11 26 39 23 25 -2 33 -8 35 -26z m-6179 -37 c74 -38
44 -145 -40 -145 -42 0 -79 35 -79 74 0 28 26 65 54 76 29 12 33 12 65 -5z
m196 -15 c23 -23 26 -80 5 -105 -24 -29 -58 -36 -94 -21 -86 36 -47 169 44
150 14 -3 34 -14 45 -24z m178 -2 c23 -28 22 -83 -3 -108 -31 -31 -93 -27
-119 6 -25 32 -27 62 -5 92 32 46 93 50 127 10z m180 0 c23 -27 22 -83 -3
-108 -31 -31 -93 -27 -119 6 -25 32 -26 45 -5 85 26 51 89 59 127 17z m156 17
c41 -21 57 -65 37 -103 -40 -77 -151 -51 -148 34 2 40 15 62 47 74 28 12 33
12 64 -5z m190 -11 c39 -32 42 -80 9 -111 -32 -28 -54 -34 -85 -22 -68 26 -73
112 -8 147 31 17 51 14 84 -14z m189 -10 c46 -52 9 -126 -63 -126 -46 0 -75
28 -75 74 0 82 82 114 138 52z m-1249 0 c12 -15 21 -37 21 -49 0 -38 -37 -75
-75 -75 -47 0 -79 29 -79 73 0 49 27 77 75 77 29 0 42 -6 58 -26z m1418 4 c50
-47 14 -128 -57 -128 -46 0 -74 28 -74 75 0 19 8 43 19 55 25 27 81 27 112 -2z
m299 -26 c34 -23 17 -72 -25 -72 -40 0 -54 36 -25 64 17 17 33 20 50 8z m110
0 c35 -23 17 -72 -26 -72 -24 0 -31 5 -36 27 -10 37 31 66 62 45z m105 -2 c44
-24 10 -86 -39 -73 -28 7 -31 57 -4 72 21 13 20 13 43 1z m117 -2 c16 -16 15
-53 -2 -67 -20 -16 -63 -3 -69 21 -3 12 2 27 14 39 22 22 40 24 57 7z m112 -8
c21 -40 -1 -67 -50 -60 -18 2 -16 0 -24 26 -14 45 53 74 74 34z m97 12 c11 -7
16 -26 14 -49 -1 -17 -36 -34 -55 -27 -21 8 -29 39 -16 64 11 20 35 26 57 12z
m667 -8 c34 -33 8 -82 -36 -68 -41 12 -47 35 -18 64 24 24 34 25 54 4z m102 8
c22 -15 24 -42 3 -63 -18 -18 -23 -19 -42 -6 -28 18 -32 40 -12 61 18 17 34
20 51 8z m110 0 c22 -15 24 -42 4 -62 -24 -24 -34 -25 -54 -4 -38 38 6 97 50
66z m478 -8 c29 -29 12 -64 -31 -64 -19 0 -43 25 -43 44 0 10 32 36 45 36 7 0
21 -7 29 -16z m110 0 c34 -33 10 -70 -41 -65 -24 2 -33 36 -17 59 18 26 37 28
58 6z m104 0 c29 -20 28 -52 -2 -65 -49 -22 -88 28 -50 65 19 20 24 20 52 0z
m327 3 c13 -10 16 -21 12 -39 -13 -50 -77 -40 -77 12 0 39 31 51 65 27z m101
5 c21 -13 25 -49 9 -66 -21 -20 -39 -20 -59 0 -21 20 -20 30 4 54 22 22 29 24
46 12z m118 -8 c22 -21 20 -51 -3 -64 -27 -14 -37 -13 -55 6 -21 20 -20 30 4
54 24 24 34 25 54 4z m212 8 c35 -24 6 -90 -33 -75 -35 13 -42 42 -17 67 17
17 33 20 50 8z m118 -8 c19 -18 19 -20 6 -45 -18 -32 -80 -19 -80 17 0 17 28
44 45 44 7 0 21 -7 29 -16z m97 6 c26 -15 26 -66 -1 -75 -47 -15 -84 50 -42
74 21 13 20 13 43 1z m435 2 c21 -13 25 -49 9 -66 -32 -32 -82 -6 -71 37 5 22
15 29 46 36 3 0 10 -3 16 -7z m124 -22 c21 -38 -19 -72 -60 -50 -30 16 -25 60
10 72 21 7 39 -1 50 -22z m100 10 c24 -24 25 -34 4 -54 -18 -19 -28 -20 -55
-6 -23 13 -25 43 -3 64 20 21 30 20 54 -4z m220 6 c6 -8 10 -25 8 -38 -2 -18
-10 -24 -35 -26 -28 -3 -33 0 -39 24 -11 42 39 72 66 40z m110 0 c6 -8 10 -25
8 -38 -2 -18 -10 -24 -35 -26 -28 -3 -33 0 -39 24 -11 42 39 72 66 40z m118
-29 c5 -37 -30 -54 -64 -32 -29 19 -30 29 -4 55 26 26 64 13 68 -23z m93 33
c23 -13 25 -53 3 -71 -13 -11 -20 -11 -42 2 -30 17 -31 46 -4 67 19 15 19 15
43 2z m113 -6 c22 -21 20 -40 -6 -58 -19 -13 -25 -14 -43 -2 -26 18 -30 40
-10 60 21 20 39 20 59 0z m110 -3 c25 -27 6 -61 -34 -61 -33 0 -47 27 -30 60
14 25 42 26 64 1z m-6226 -147 c29 -33 28 -69 -3 -99 -64 -65 -170 15 -120 91
32 49 82 52 123 8z m173 7 c17 -18 29 -40 29 -56 0 -36 -41 -75 -80 -75 -60 0
-102 76 -67 121 35 45 79 49 118 10z m173 7 c57 -51 26 -138 -49 -138 -48 0
-75 29 -75 79 0 70 73 105 124 59z m181 -3 c49 -48 20 -135 -45 -135 -42 0
-59 9 -75 41 -21 40 -19 57 14 90 36 36 73 37 106 4z m160 15 c28 -11 55 -62
48 -91 -16 -61 -95 -80 -138 -33 -33 36 -31 69 4 105 32 31 45 34 86 19z m200
-15 c51 -50 18 -135 -52 -135 -74 0 -107 88 -51 136 37 31 72 31 103 -1z m187
-7 c42 -55 6 -128 -64 -128 -49 0 -78 28 -78 75 0 53 39 89 88 81 21 -3 44
-15 54 -28z m170 2 c25 -26 29 -36 24 -63 -8 -41 -39 -67 -82 -67 -70 0 -101
84 -49 135 33 34 70 32 107 -5z m169 1 c34 -35 37 -68 8 -105 -16 -20 -29 -26
-59 -26 -107 0 -98 154 8 159 8 1 27 -12 43 -28z m339 -116 c0 -16 -6 -25 -15
-25 -9 0 -15 9 -15 25 0 16 6 25 15 25 9 0 15 -9 15 -25z m108 -167 c-3 -164
-5 -193 -18 -193 -13 0 -15 28 -18 180 -1 98 0 185 2 192 3 7 12 13 21 13 13
0 15 -24 13 -192z m872 167 c0 -18 -5 -25 -20 -25 -20 0 -28 28 -13 43 15 16
33 6 33 -18z m985 0 c0 -11 -8 -21 -17 -23 -14 -3 -18 3 -18 23 0 20 4 26 18
23 9 -2 17 -12 17 -23z m-3716 -61 c41 -52 17 -118 -46 -130 -27 -5 -37 -1
-63 24 -35 36 -38 69 -9 106 16 20 29 26 59 26 30 0 43 -6 59 -26z m180 0 c42
-54 16 -120 -51 -130 -30 -5 -41 -2 -62 19 -54 54 -20 137 55 137 29 0 42 -6
58 -26z m177 5 c22 -24 25 -89 5 -112 -7 -9 -28 -19 -47 -23 -85 -16 -134 91
-66 142 27 21 86 17 108 -7z m174 1 c23 -23 27 -85 7 -111 -31 -41 -109 -34
-132 11 -21 41 -19 67 10 95 31 32 86 34 115 5z m179 -1 c54 -58 4 -154 -72
-135 -95 23 -83 156 13 156 27 0 45 -7 59 -21z m185 -10 c31 -36 32 -45 7 -85
-33 -55 -114 -53 -140 2 -15 34 -14 44 9 82 17 27 25 32 59 32 32 0 44 -6 65
-31z m175 5 c26 -33 27 -75 2 -105 -14 -18 -29 -24 -61 -24 -32 0 -47 6 -61
24 -43 53 -7 131 61 131 30 0 43 -6 59 -26z m156 20 c18 -7 45 -55 45 -79 0
-25 -55 -75 -83 -75 -13 0 -36 9 -51 21 -20 16 -26 29 -26 59 0 62 54 97 115
74z m170 -6 c46 -21 50 -88 8 -126 -46 -41 -113 -7 -113 57 0 41 6 53 35 69
26 15 38 15 70 0z m1019 -49 l26 -20 26 20 c54 42 134 20 149 -41 11 -43 1
-221 -12 -226 -10 -3 -13 22 -13 100 0 125 -11 152 -61 156 -24 2 -44 -3 -60
-17 -22 -18 -24 -27 -27 -131 -3 -78 -7 -110 -15 -107 -8 2 -14 43 -17 114 -6
127 -15 146 -68 141 -58 -5 -76 -40 -80 -159 -3 -68 -8 -99 -16 -96 -16 5 -15
269 2 275 6 2 12 -4 12 -13 0 -15 4 -15 33 4 41 26 87 27 121 0z m583 -3 c28
-24 28 -25 28 -143 0 -98 -3 -118 -15 -118 -12 0 -16 20 -18 110 -3 122 -13
145 -64 145 -72 0 -98 -47 -98 -176 0 -64 -3 -85 -12 -82 -17 6 -24 256 -8
272 8 8 13 7 20 -4 8 -13 13 -13 37 2 41 26 96 23 130 -6z m288 -1 c23 -22 25
-32 25 -116 0 -71 4 -97 16 -110 16 -17 12 -39 -7 -39 -5 0 -17 9 -26 19 -16
20 -17 20 -41 0 -17 -13 -40 -19 -73 -19 -61 0 -89 26 -89 82 0 32 5 41 31 57
17 10 54 22 82 25 56 8 77 20 77 44 0 49 -90 72 -130 32 -11 -11 -20 -24 -20
-30 0 -5 -7 -10 -15 -10 -24 0 -17 29 14 61 25 24 37 29 81 29 41 0 56 -5 75
-25z m312 -9 c13 -15 23 -34 23 -42 0 -24 -25 -16 -48 16 -46 62 -142 27 -158
-56 -23 -122 107 -205 164 -104 16 29 42 41 42 20 0 -21 -30 -70 -49 -80 -28
-15 -97 -12 -130 5 -41 21 -64 76 -59 142 8 92 57 137 142 130 39 -3 55 -11
73 -31z m394 8 c46 -41 62 -124 35 -188 -20 -49 -61 -76 -113 -76 -93 0 -139
56 -131 163 4 54 8 63 42 95 36 32 42 34 92 30 34 -3 62 -12 75 -24z m303 5
c26 -20 26 -22 26 -146 0 -95 -3 -124 -12 -121 -9 3 -15 39 -18 115 -6 130
-14 145 -73 141 -63 -5 -81 -37 -87 -156 -7 -144 -24 -117 -28 43 -2 116 0
135 13 135 8 0 15 -7 15 -16 0 -14 5 -13 33 5 42 27 97 27 131 0z m276 6 c36
-19 60 -62 60 -110 l0 -35 -106 0 -106 0 6 -27 c4 -16 20 -41 37 -56 40 -37
81 -30 125 20 36 41 54 31 29 -16 -20 -40 -43 -51 -104 -51 -42 0 -56 5 -83
29 -29 26 -32 35 -36 97 -4 53 -1 75 14 102 31 58 102 79 164 47z m291 -14
c16 -16 29 -37 29 -45 0 -25 -29 -19 -39 8 -23 60 -143 44 -127 -17 3 -14 14
-28 24 -31 9 -3 36 -10 58 -15 91 -24 122 -86 68 -136 -22 -20 -37 -25 -83
-25 -65 0 -94 16 -109 59 -15 41 12 51 32 12 21 -40 67 -57 106 -41 35 14 53
41 44 64 -3 9 -36 25 -73 36 -81 24 -87 28 -100 63 -20 52 25 97 97 97 35 0
49 -6 73 -29z m421 9 c28 -22 42 -57 26 -66 -6 -4 -21 7 -35 25 -26 33 -66 41
-104 21 -46 -25 -13 -70 66 -89 95 -23 124 -85 64 -135 -42 -35 -126 -37 -163
-3 -24 21 -39 66 -23 67 22 1 27 -1 27 -13 0 -19 30 -44 61 -52 38 -9 89 19
89 49 0 30 -13 40 -80 59 -67 20 -87 34 -95 69 -6 22 -1 33 23 58 25 24 39 30
75 30 29 0 53 -7 69 -20z m424 14 c38 -10 54 -54 54 -153 0 -73 3 -92 16 -99
9 -5 14 -14 10 -21 -10 -16 -23 -14 -47 10 l-21 21 -22 -21 c-33 -31 -109 -29
-141 4 -40 39 -29 92 23 119 15 7 51 17 80 21 63 8 83 32 58 69 -28 44 -110
37 -131 -12 -12 -26 -35 -29 -35 -4 1 53 80 87 156 66z m445 -4 c10 -6 26 -24
34 -40 22 -42 -1 -51 -32 -11 -42 53 -130 39 -121 -21 2 -19 16 -27 73 -45
106 -34 131 -78 76 -134 -26 -25 -37 -29 -86 -29 -49 0 -60 4 -86 29 -29 29
-37 55 -20 65 5 3 20 -10 35 -28 32 -42 73 -53 115 -31 21 11 31 23 31 39 0
31 -14 41 -85 60 -96 25 -123 80 -64 130 33 28 93 35 130 16z m-4403 -137 c-2
-98 -6 -138 -15 -141 -10 -3 -13 29 -13 137 0 120 2 141 15 141 13 0 15 -20
13 -137z m222 19 c5 -119 8 -125 58 -138 32 -9 74 23 89 67 7 19 12 69 12 112
1 62 4 77 16 77 13 0 15 -20 13 -137 -2 -98 -6 -138 -15 -141 -8 -2 -13 5 -13
18 l0 21 -26 -20 c-27 -21 -93 -28 -129 -15 -33 13 -45 59 -45 169 0 96 2 106
18 103 15 -3 18 -19 22 -116z m758 -19 c-3 -115 -6 -138 -18 -138 -12 0 -15
22 -18 124 -3 136 -1 151 23 151 13 0 15 -18 13 -137z m990 7 c2 -123 -5 -159
-27 -146 -7 5 -11 54 -11 142 0 124 2 135 18 132 15 -3 17 -18 20 -128z
m-3549 -16 c23 -19 31 -34 31 -59 0 -51 -28 -78 -80 -78 -33 0 -48 6 -62 23
-25 31 -23 82 5 107 43 39 66 41 106 7z m180 3 c42 -34 31 -118 -18 -135 -61
-22 -116 13 -114 73 1 43 8 54 47 71 32 13 60 10 85 -9z m160 8 c33 -16 41
-33 41 -79 0 -69 -89 -97 -136 -42 -13 15 -24 37 -24 49 0 29 26 66 54 77 29
12 33 12 65 -5z m217 -46 c12 -35 0 -78 -27 -94 -24 -15 -81 -7 -105 16 -29
27 -31 62 -4 99 37 53 116 40 136 -21z m-729 29 c28 -26 31 -76 5 -108 -27
-34 -88 -32 -118 4 -29 33 -30 65 -3 100 27 34 82 36 116 4z m888 5 c29 -29
36 -61 20 -93 -19 -36 -28 -42 -72 -43 -27 -1 -41 5 -59 27 -29 33 -30 59 -3
97 16 23 28 29 59 29 23 0 45 -7 55 -17z m184 -9 c53 -67 -8 -151 -89 -123
-82 29 -58 149 30 149 30 0 43 -6 59 -26z m156 20 c23 -9 47 -61 39 -87 -12
-39 -35 -57 -76 -57 -49 0 -78 28 -78 74 0 55 60 91 115 70z m169 -5 c15 -7
30 -26 37 -47 16 -47 -12 -86 -65 -90 -60 -5 -95 40 -75 96 15 45 58 61 103
41z m4056 -109 c0 -23 -4 -30 -20 -30 -16 0 -20 7 -20 30 0 23 4 30 20 30 16
0 20 -7 20 -30z m448 3 c-2 -17 -10 -29 -20 -31 -14 -3 -18 3 -18 27 0 25 4
31 21 31 16 0 20 -5 17 -27z"/>
<path d="M4031 3429 c-96 -19 -122 -72 -53 -108 51 -27 122 24 122 89 0 32 -1
33 -69 19z"/>
<path d="M4702 3548 c-67 -18 -95 -122 -49 -188 46 -69 120 -61 158 16 25 53
20 99 -16 143 -30 34 -49 40 -93 29z"/>
<path d="M5282 3534 c-30 -21 -48 -64 -31 -75 7 -4 47 -7 88 -6 89 3 101 18
53 67 -34 34 -75 39 -110 14z"/>
<path d="M6470 3426 c-71 -15 -80 -21 -80 -56 0 -37 38 -65 74 -56 43 11 77
48 79 85 1 19 -2 35 -8 37 -5 1 -35 -3 -65 -10z"/>
</g>
</svg>
