<?xml version="1.0" standalone="no"?>
<!DOCTYPE svg PUBLIC "-//W3C//DTD SVG 20010904//EN"
 "http://www.w3.org/TR/2001/REC-SVG-20010904/DTD/svg10.dtd">
<svg version="1.0" xmlns="http://www.w3.org/2000/svg"
 width="200.000000pt" height="200.000000pt" viewBox="0 0 200.000000 200.000000"
 preserveAspectRatio="xMidYMid meet">

<g transform="translate(0.000000,200.000000) scale(0.100000,-0.100000)"
fill="#000000" stroke="none">
<path d="M0 1000 l0 -1000 1000 0 1000 0 0 1000 0 1000 -1000 0 -1000 0 0
-1000z m1180 423 c0 -5 -4 -15 -10 -23 -12 -20 6 -30 58 -30 29 0 48 6 62 20
26 26 33 25 24 -2 -10 -34 -33 -56 -65 -63 -16 -4 -29 -9 -29 -11 0 -15 33
-64 47 -73 16 -8 13 -12 -20 -26 -21 -8 -42 -13 -48 -9 -6 4 -9 -15 -7 -52 3
-56 4 -59 33 -65 17 -4 59 -19 94 -34 43 -18 76 -26 102 -23 46 4 50 -6 9 -27
-37 -19 -88 -19 -157 1 -68 20 -90 14 -148 -36 -74 -64 -120 -69 -212 -21 -23
11 -51 21 -63 21 -23 0 -24 4 -10 30 8 15 6 21 -9 30 -30 15 -51 12 -111 -16
-68 -32 -140 -36 -169 -10 -11 10 -18 23 -15 27 8 14 48 10 70 -6 29 -22 44
-19 108 25 61 41 107 51 147 30 27 -15 25 11 -3 38 -38 35 -77 45 -105 27 -13
-9 -30 -14 -36 -12 -7 2 -19 -2 -28 -10 -9 -8 -29 -15 -45 -16 -41 -3 -37 22
6 47 48 29 131 28 188 -2 l42 -22 0 30 c0 21 -5 30 -17 30 -18 0 -53 28 -53
42 0 4 8 8 18 8 9 1 28 7 41 14 l24 13 -36 12 c-42 14 -71 46 -87 97 -12 35
-6 60 9 36 11 -19 162 -91 177 -85 8 3 14 13 14 22 0 23 28 61 54 71 26 11
156 13 156 3z m268 -609 c27 -19 30 -78 5 -106 -39 -43 -103 -10 -103 53 0 39
26 69 60 69 9 0 26 -7 38 -16z m-1255 -1 c-21 -4 -23 -10 -23 -65 0 -79 -24
-76 -28 5 -3 48 -6 56 -25 60 -12 2 5 4 38 4 33 0 50 -2 38 -4z m77 -23 c0
-27 3 -30 30 -30 27 0 30 3 30 30 0 59 18 29 22 -35 2 -47 0 -65 -9 -65 -8 0
-13 13 -13 30 0 27 -3 30 -30 30 -27 0 -30 -3 -30 -31 0 -20 -4 -29 -12 -27
-8 3 -14 28 -16 66 -2 51 0 62 13 62 10 0 15 -10 15 -30z m173 23 c-25 -3 -33
-9 -33 -24 0 -14 7 -19 25 -19 14 0 25 -4 25 -10 0 -5 -11 -10 -25 -10 -20 0
-25 -5 -25 -24 0 -20 6 -25 33 -29 28 -3 27 -4 -10 -5 l-41 -2 -4 65 -3 65 45
-2 c37 -1 39 -2 13 -5z m170 0 c-25 -3 -33 -9 -33 -24 0 -14 7 -19 25 -19 14
0 25 -4 25 -10 0 -5 -11 -10 -25 -10 -20 0 -25 -5 -25 -24 0 -20 6 -25 33 -29
28 -3 27 -4 -10 -5 l-41 -2 -4 65 -3 65 45 -2 c37 -1 39 -2 13 -5z m87 -52 l0
-60 33 -4 c28 -3 27 -4 -10 -5 l-41 -2 -4 65 c-2 47 0 65 10 65 8 0 12 -19 12
-59z m110 -6 c0 -84 -17 -84 -22 0 -2 47 0 65 10 65 8 0 12 -20 12 -65z m108
58 c-27 -4 -28 -7 -28 -64 0 -33 -4 -59 -10 -59 -6 0 -10 26 -10 59 0 54 -2
60 -22 64 -13 2 4 4 37 4 33 0 48 -2 33 -4z m105 0 c-25 -3 -33 -9 -33 -24 0
-14 7 -19 25 -19 14 0 25 -4 25 -10 0 -5 -11 -10 -25 -10 -20 0 -25 -5 -25
-24 0 -20 6 -25 33 -29 28 -3 27 -4 -10 -5 l-41 -2 -4 65 -3 65 45 -2 c37 -1
39 -2 13 -5z m170 0 c-25 -3 -33 -9 -33 -24 0 -14 7 -19 25 -19 14 0 25 -4 25
-10 0 -5 -11 -10 -25 -10 -21 0 -25 -5 -25 -30 0 -59 -18 -29 -22 35 l-3 65
45 -2 c37 -1 39 -2 13 -5z m87 -52 l0 -60 38 -4 c35 -3 34 -4 -10 -5 l-46 -2
-4 65 c-2 47 0 65 10 65 8 0 12 -19 12 -59z m240 17 l13 -43 15 45 15 45 18
-40 18 -40 16 39 c26 63 27 34 1 -35 -24 -63 -24 -64 -35 -36 -6 16 -11 33
-11 38 0 22 -19 6 -25 -21 -4 -16 -10 -30 -14 -30 -4 0 -17 27 -29 60 -16 45
-18 60 -8 60 7 0 19 -19 26 -42z m213 35 c-25 -3 -33 -9 -33 -24 0 -14 7 -19
25 -19 14 0 25 -4 25 -10 0 -5 -11 -10 -25 -10 -20 0 -25 -5 -25 -24 0 -20 6
-25 33 -29 28 -3 27 -4 -10 -5 l-41 -2 -4 65 -3 65 45 -2 c37 -1 39 -2 13 -5z
m145 -22 c2 -13 -2 -27 -9 -32 -10 -6 -9 -13 5 -34 27 -41 8 -44 -25 -5 l-28
35 -1 -32 c0 -61 -18 -34 -22 32 l-3 66 40 -3 c34 -3 41 -7 43 -27z m-1290
-193 c2 -16 -2 -28 -8 -28 -6 0 -8 5 -5 10 3 6 -1 10 -10 10 -9 0 -13 -4 -10
-10 3 -5 1 -10 -4 -10 -6 0 -11 14 -11 31 0 26 3 30 23 27 16 -2 23 -11 25
-30z m47 22 c5 -8 11 -7 20 0 12 10 12 6 2 -19 -6 -17 -12 -29 -12 -28 -1 1
-9 14 -18 30 -10 15 -13 27 -8 27 5 0 13 -5 16 -10z m145 -20 c5 0 11 8 13 18
3 9 5 1 5 -18 0 -19 -2 -29 -5 -22 -2 6 -11 12 -18 12 -7 0 -16 -6 -18 -12 -3
-7 -6 3 -6 22 0 28 2 32 10 18 5 -10 14 -18 19 -18z m104 -5 c5 -16 1 -20 -19
-20 -14 0 -25 1 -25 2 0 1 5 14 12 28 12 27 22 24 32 -10z m89 17 c3 18 5 16
6 -9 1 -36 -9 -42 -30 -17 -12 14 -14 14 -20 -3 -6 -13 -8 -9 -8 16 l-1 34 24
-22 24 -23 5 24z m80 5 c3 10 5 3 6 -16 1 -33 0 -34 -18 -17 -18 17 -19 17
-24 -1 -3 -10 -5 -3 -6 16 -1 33 0 34 18 17 18 -17 19 -17 24 1z m87 -37 c0
-3 -11 -5 -25 -5 -14 0 -25 1 -25 2 0 1 5 14 12 28 l12 26 13 -23 c7 -13 12
-25 13 -28z m62 41 c-7 -4 -12 -12 -11 -17 3 -19 -1 -34 -11 -34 -5 0 -10 14
-10 30 0 24 4 30 23 30 15 0 18 -3 9 -9z m96 -22 c2 -18 -3 -29 -14 -33 -14
-5 -15 -4 -4 9 13 16 7 45 -9 45 -5 0 -11 -12 -13 -27 -4 -23 -6 -25 -12 -10
-12 26 1 49 26 45 16 -2 24 -11 26 -29z m74 2 c4 -24 1 -28 -19 -28 -19 0 -23
5 -23 28 0 22 5 29 19 29 13 0 20 -9 23 -29z m87 15 c15 -17 4 -46 -18 -45
-10 0 -11 2 -3 6 17 7 15 43 -2 43 -8 0 -17 -12 -19 -27 -4 -26 -4 -26 -6 5
-1 25 3 32 18 32 10 0 24 -6 30 -14z m-1021 -23 c-27 -2 -69 -2 -95 0 -27 2
-5 3 47 3 52 0 74 -1 48 -3z m1220 0 c-26 -2 -71 -2 -100 0 -29 2 -8 3 47 3
55 0 79 -1 53 -3z"/>
<path d="M1013 1395 c-30 -21 -38 -63 -17 -86 20 -23 34 -24 34 -5 0 18 48 58
89 75 17 8 31 17 31 22 0 15 -114 10 -137 -6z"/>
<path d="M794 1351 c26 -49 123 -87 114 -45 -3 18 -13 25 -73 51 -22 9 -44 19
-48 21 -5 2 -1 -10 7 -27z"/>
<path d="M1270 1360 c-8 -5 -48 -6 -90 -3 -67 5 -78 3 -102 -17 -16 -12 -28
-26 -28 -31 0 -16 21 -9 40 14 17 20 26 22 98 19 61 -2 82 1 92 13 14 17 11
19 -10 5z"/>
<path d="M1109 1320 c-15 -9 -11 -16 27 -55 32 -32 53 -45 73 -45 15 0 30 3
34 6 7 7 -31 75 -52 92 -18 14 -59 15 -82 2z"/>
<path d="M915 1275 c-16 -22 -39 -38 -57 -42 -26 -5 -28 -7 -14 -21 21 -22 60
-3 87 43 12 19 27 35 35 35 8 0 14 5 14 10 0 23 -40 7 -65 -25z"/>
<path d="M1090 1289 c0 -4 6 -19 14 -35 16 -30 6 -64 -19 -64 -14 0 -29 34
-24 56 4 21 -2 34 -16 34 -10 0 -17 -14 -21 -41 -6 -33 -14 -45 -42 -62 -31
-18 -33 -22 -16 -28 10 -4 41 -8 67 -8 41 -1 53 4 78 28 35 36 37 61 4 98 -13
15 -25 25 -25 22z"/>
<path d="M939 1240 c-13 -22 -26 -40 -31 -40 -4 0 -8 -16 -8 -35 0 -33 2 -35
32 -35 30 0 31 1 13 14 -19 13 -17 15 20 37 29 17 35 25 22 27 -19 4 -22 24
-7 53 8 15 7 19 -4 19 -8 0 -25 -18 -37 -40z"/>
<path d="M997 1263 c-4 -3 -7 -13 -7 -22 1 -13 3 -13 11 2 11 19 8 33 -4 20z"/>
<path d="M1080 1236 c0 -14 5 -26 10 -26 6 0 10 9 10 19 0 11 -4 23 -10 26 -6
4 -10 -5 -10 -19z"/>
<path d="M1143 1190 c-8 -22 -9 -40 -2 -60 15 -41 -5 -103 -49 -153 l-37 -42
35 26 c58 44 80 92 80 182 0 82 -8 96 -27 47z"/>
<path d="M663 1145 c-18 -8 -33 -17 -33 -20 0 -13 40 -3 61 15 28 23 17 25
-28 5z"/>
<path d="M1087 1134 c-15 -8 -27 -22 -27 -32 0 -9 -3 -27 -6 -40 -6 -22 -6
-22 35 5 28 18 41 34 41 49 0 31 -10 35 -43 18z"/>
<path d="M912 1113 c-18 -4 -22 -9 -16 -26 8 -27 3 -25 47 -19 31 3 37 8 37
28 0 25 -12 28 -68 17z"/>
<path d="M990 1092 c0 -30 16 -52 37 -52 9 0 13 14 13 40 0 36 -2 40 -25 40
-21 0 -25 -5 -25 -28z"/>
<path d="M764 1066 c-47 -21 -51 -37 -5 -19 35 14 42 14 70 0 29 -14 31 -14
31 3 0 31 -44 39 -96 16z"/>
<path d="M1174 1052 c-10 -27 -10 -27 29 -23 22 2 66 -5 97 -14 39 -12 68 -15
87 -10 28 8 27 8 -13 16 -23 4 -65 19 -93 33 -67 34 -94 34 -107 -2z"/>
<path d="M1080 1043 c-28 -26 -58 -93 -41 -93 17 0 91 92 91 114 0 14 -22 4
-50 -21z"/>
<path d="M895 1038 c-22 -12 -45 -37 -45 -50 0 -5 14 -1 32 8 38 20 103 23
119 7 10 -10 4 -11 -24 -6 -39 6 -87 -2 -87 -16 0 -13 85 -42 104 -35 9 3 16
14 16 23 0 9 5 22 11 28 7 7 3 17 -17 32 -29 23 -77 27 -109 9z"/>
<path d="M562 1018 c3 -7 15 -14 29 -16 23 -2 23 -2 5 13 -24 18 -39 20 -34 3z"/>
<path d="M1378 785 c-17 -38 0 -80 32 -80 18 0 27 8 34 27 13 36 -6 78 -34 78
-12 0 -25 -10 -32 -25z"/>
<path d="M1820 785 c0 -16 6 -25 15 -25 9 0 15 9 15 25 0 16 -6 25 -15 25 -9
0 -15 -9 -15 -25z"/>
<path d="M555 610 c3 -5 8 -10 11 -10 2 0 4 5 4 10 0 6 -5 10 -11 10 -5 0 -7
-4 -4 -10z"/>
</g>
</svg>
